<svg width="34" height="22" viewBox="0 0 34 22" fill="none" xmlns="http://www.w3.org/2000/svg" xmlns:xlink="http://www.w3.org/1999/xlink">
<path d="M31.334,20.668L29.335,20.668C28.232,20.668 27.335,19.77 27.335,18.668L27.335,1.334C27.335,0.231 28.232,-0.666 29.335,-0.666L31.334,-0.666C32.437,-0.666 33.334,0.231 33.334,1.334L33.334,18.668C33.334,19.77 32.437,20.668 31.334,20.668ZM22.001,20.668L20,20.668C18.897,20.668 18,19.771 18,18.668L18,6.001C18,4.898 18.897,4.001 20,4.001L22.001,4.001C23.104,4.001 24.001,4.898 24.001,6.001L24.001,18.668C24.001,19.771 23.104,20.668 22.001,20.668ZM12.667,20.668L10.667,20.668C9.564,20.668 8.667,19.771 8.667,18.668L8.667,10.667C8.667,9.564 9.564,8.667 10.667,8.667L12.667,8.667C13.77,8.667 14.668,9.564 14.668,10.667L14.668,18.668C14.668,19.771 13.77,20.668 12.667,20.668ZM3.334,20.668L1.334,20.668C0.231,20.668 -0.666,19.771 -0.666,18.668L-0.666,14.668C-0.666,13.565 0.231,12.667 1.334,12.667L3.334,12.667C4.436,12.667 5.333,13.565 5.333,14.668L5.333,18.668C5.333,19.771 4.436,20.668 3.334,20.668Z" clip-rule="evenodd" fill-rule="evenodd" fill="#FFFFFF"/>
</svg>
