<svg width="46" height="34" viewBox="0 0 46 34" fill="none" xmlns="http://www.w3.org/2000/svg" xmlns:xlink="http://www.w3.org/1999/xlink">
<path d="M19.753,33.308L19.695,33.308C19.592,33.306 19.488,33.304 19.292,33.302C19.053,33.3 18.945,33.299 18.815,33.295C18.054,33.284 17.314,33.218 16.551,33.093C15.746,32.953 14.961,32.694 14.22,32.325C13.485,31.943 12.819,31.455 12.241,30.876C12.213,30.847 12.171,30.804 12.099,30.728C12.085,30.714 12.04,30.669 12.011,30.638C11.736,30.374 11.611,30.253 11.453,30.095C11.453,30.095 6.472,25.118 6.453,25.098C6.325,24.979 6.21,24.864 6.109,24.756C5.999,24.651 5.904,24.558 5.733,24.385L1.823,20.472L1.452,20.099C1.346,19.993 1.27,19.914 1.152,19.786C0.817,19.457 0.502,19.111 0.214,18.758C-0.062,18.465 -0.279,18.128 -0.434,17.761L-0.472,17.658C-0.764,16.766 -0.751,15.83 -0.438,14.876C-0.281,14.501 -0.063,14.163 0.214,13.869C0.507,13.508 0.82,13.164 1.117,12.878C1.276,12.708 1.35,12.631 1.452,12.528C1.629,12.354 1.708,12.273 1.823,12.15L6.111,7.865C6.188,7.787 6.226,7.749 6.273,7.704C6.332,7.643 6.393,7.586 6.426,7.557C6.469,7.514 6.508,7.479 6.543,7.452L10.812,3.176L11.453,2.533C11.608,2.38 11.732,2.259 12.011,1.989L12.103,1.898C12.171,1.824 12.213,1.781 12.24,1.754C12.825,1.169 13.496,0.679 14.238,0.296C14.965,-0.066 15.75,-0.324 16.569,-0.469C17.317,-0.588 18.063,-0.653 18.783,-0.66C19.036,-0.669 19.236,-0.673 19.547,-0.673L19.756,-0.673C20.091,-0.678 20.348,-0.68 20.905,-0.68L33.55,-0.68L34.117,-0.68C34.327,-0.678 34.514,-0.676 34.675,-0.675C35.157,-0.675 35.38,-0.671 35.634,-0.66C36.403,-0.651 37.148,-0.588 37.909,-0.466C38.714,-0.324 39.49,-0.064 40.219,0.301C40.958,0.677 41.63,1.167 42.211,1.754C42.794,2.335 43.284,3.006 43.664,3.75C44.026,4.479 44.283,5.264 44.429,6.083C44.546,6.817 44.611,7.562 44.62,8.295C44.625,8.448 44.629,8.599 44.632,8.802C44.632,8.883 44.632,8.883 44.634,8.963C44.636,9.069 44.636,9.135 44.638,9.202L44.639,9.296L44.639,23.274L44.638,23.316C44.638,23.386 44.636,23.456 44.634,23.588C44.63,23.91 44.627,24.065 44.62,24.227C44.612,24.984 44.546,25.753 44.42,26.509C44.281,27.321 44.022,28.109 43.649,28.854C43.271,29.592 42.782,30.266 42.195,30.854C41.608,31.445 40.931,31.936 40.186,32.316C39.448,32.692 38.658,32.951 37.837,33.09C37.092,33.214 36.331,33.282 35.575,33.295C35.436,33.299 35.326,33.3 35.085,33.302C34.918,33.304 34.817,33.304 34.718,33.306L34.594,33.308L19.753,33.308ZM19.778,1.844C19.321,1.844 19.123,1.845 18.847,1.856C18.219,1.863 17.595,1.917 16.986,2.015C16.423,2.114 15.881,2.29 15.377,2.54C14.875,2.799 14.419,3.134 14.022,3.534C14.018,3.537 14,3.555 13.919,3.64C13.825,3.739 13.782,3.782 13.734,3.825C13.483,4.067 13.37,4.178 13.233,4.313L12.592,4.956L8.249,9.305C8.208,9.346 8.166,9.384 8.074,9.465L8.038,9.497L7.891,9.645L7.513,10.023L3.627,13.909C3.517,14.024 3.427,14.114 3.232,14.309C3.164,14.377 3.11,14.435 2.973,14.577L2.912,14.642C2.642,14.904 2.383,15.191 2.142,15.491L2.055,15.587C1.992,15.651 1.942,15.723 1.906,15.799C1.809,16.134 1.809,16.49 1.906,16.827C1.945,16.906 1.996,16.98 2.061,17.048L2.138,17.133C2.388,17.442 2.647,17.727 2.952,18.026C3.094,18.177 3.155,18.242 3.232,18.319L3.605,18.692L7.513,22.605C7.695,22.787 7.772,22.864 7.916,23.004C7.974,23.064 8.051,23.145 8.15,23.24C8.163,23.249 8.177,23.264 8.197,23.282L8.244,23.323L13.233,28.314C13.37,28.449 13.483,28.561 13.734,28.804C13.782,28.847 13.825,28.89 13.923,28.993C14,29.074 14.018,29.092 14.022,29.096C14.418,29.492 14.88,29.832 15.359,30.078C15.879,30.336 16.421,30.516 16.972,30.611C17.589,30.714 18.225,30.77 18.858,30.779L18.916,30.779C19.018,30.78 19.123,30.782 19.317,30.784L19.533,30.788C19.637,30.788 19.708,30.789 19.778,30.791L34.568,30.791C34.655,30.789 34.729,30.788 34.829,30.788L35.06,30.784C35.249,30.782 35.351,30.78 35.454,30.78L35.528,30.779C36.161,30.768 36.8,30.71 37.423,30.608C37.987,30.512 38.532,30.332 39.047,30.071C39.549,29.816 40.008,29.483 40.411,29.078C40.814,28.673 41.149,28.215 41.405,27.717C41.66,27.206 41.839,26.66 41.938,26.091C42.042,25.454 42.096,24.824 42.103,24.164C42.11,24 42.112,23.867 42.116,23.555C42.118,23.465 42.119,23.402 42.119,23.354C42.119,23.312 42.121,23.282 42.121,23.251L42.121,9.321L42.119,9.216C42.119,9.157 42.118,9.092 42.116,8.997C42.116,8.918 42.116,8.918 42.114,8.84C42.112,8.657 42.109,8.523 42.103,8.361C42.094,7.721 42.04,7.094 41.945,6.5C41.846,5.933 41.668,5.39 41.416,4.886C41.16,4.385 40.829,3.93 40.429,3.53C40.033,3.132 39.581,2.801 39.085,2.547C38.582,2.297 38.033,2.114 37.493,2.016C36.856,1.916 36.226,1.863 35.569,1.856C35.33,1.845 35.132,1.844 34.655,1.844L34.108,1.838L33.55,1.838L20.905,1.838C20.354,1.838 20.104,1.838 19.778,1.844ZM31.823,22.974L31.811,22.986L26.722,17.905L21.643,22.99L21.641,22.992L21.639,22.99L21.625,22.976C21.524,23.076 21.401,23.159 21.265,23.215C21.124,23.273 20.978,23.301 20.833,23.301C20.536,23.301 20.246,23.184 20.028,22.967C19.589,22.526 19.589,21.811 20.028,21.368C20.093,21.303 20.163,21.248 20.239,21.203L25.127,16.308L20.028,11.216L20.044,11.2C19.945,11.098 19.863,10.977 19.807,10.84C19.632,10.415 19.729,9.927 20.053,9.605C20.496,9.164 21.211,9.164 21.653,9.605C21.718,9.67 21.774,9.741 21.82,9.817L26.722,14.712L31.674,9.756C31.71,9.702 31.751,9.652 31.798,9.605C32.122,9.281 32.606,9.184 33.029,9.359C33.452,9.531 33.728,9.944 33.728,10.401C33.728,10.705 33.605,10.989 33.398,11.196L33.411,11.209L28.321,16.305L33.29,21.267C33.334,21.3 33.377,21.336 33.416,21.375C33.74,21.698 33.838,22.184 33.663,22.605C33.488,23.028 33.078,23.303 32.621,23.303C32.317,23.303 32.03,23.181 31.823,22.974Z" clip-rule="evenodd" fill-rule="evenodd" fill="#000000"/>
</svg>
