<svg width="30" height="50" viewBox="0 0 30 50" fill="none" xmlns="http://www.w3.org/2000/svg" xmlns:xlink="http://www.w3.org/1999/xlink">
<path d="M23,50C22.979,50 22.955,50 22.934,49.999L7.06,50L7,50C6.081,50 5.333,49.253 5.333,48.334C5.333,47.415 6.081,46.667 7,46.667C7.02,46.667 7.04,46.667 7.06,46.669L7.06,46.647L13.354,46.647L13.354,41.58C5.733,40.694 -0.009,34.238 0,26.564C0,26.523 0.004,26.485 0.007,26.447L0.009,26.416C0.011,26.396 0.013,26.376 0.013,26.357L0.013,22.536C0.004,22.476 0,22.411 0,22.331C0,21.412 0.748,20.664 1.667,20.664C2.586,20.664 3.334,21.412 3.334,22.331C3.334,22.378 3.331,22.43 3.325,22.504L3.325,27.085L3.317,27.099C3.317,27.128 3.319,27.158 3.321,27.189C3.323,27.218 3.325,27.248 3.325,27.277L3.325,27.904L3.357,27.904C3.852,33.831 8.705,38.453 14.647,38.659L15.32,38.659C21.264,38.457 26.12,33.833 26.615,27.904L26.655,27.904L26.654,22.351L26.667,22.351L26.667,22.331C26.667,21.412 27.415,20.664 28.334,20.664C29.253,20.664 30.001,21.412 30.001,22.331C30.001,22.395 29.998,22.442 29.993,22.486L29.993,26.564L29.973,26.564C29.979,34.217 24.252,40.673 16.654,41.58L16.654,46.647L22.934,46.647L22.934,46.669L23,46.667C23.92,46.667 24.667,47.415 24.667,48.334C24.667,49.253 23.919,50 23,50ZM14.992,35.993C13.058,35.993 11.155,35.332 9.634,34.132C8.104,32.99 6.979,31.352 6.466,29.518C6.23,28.64 6.091,27.736 6.053,26.831C5.999,25.902 5.999,24.929 5.999,23.989L5.999,23.756L5.999,15.331L5.999,13.972C6.001,12.728 6.003,9.771 5.999,9.162C6.026,8.248 6.184,7.343 6.467,6.475C7.531,2.662 11.037,0 14.994,0C18.951,0 22.457,2.662 23.521,6.475C23.772,7.351 23.929,8.256 23.989,9.162C24.033,9.936 24.01,12.586 23.998,14.01L23.998,14.022C23.992,14.598 23.989,15.071 23.989,15.331L23.989,23.756L23.989,23.857C23.987,24.842 23.985,25.86 23.933,26.831C23.893,27.736 23.755,28.64 23.521,29.518C23.002,31.35 21.877,32.989 20.353,34.132C18.832,35.332 16.928,35.993 14.992,35.993ZM14.997,3.335C13.785,3.335 12.59,3.745 11.633,4.489C10.671,5.23 9.965,6.287 9.646,7.463C9.494,8.03 9.397,8.608 9.36,9.182C9.325,9.642 9.33,12.581 9.338,17.029C9.342,19.467 9.347,22.223 9.347,25.331C9.347,25.978 9.353,26.187 9.387,26.824C9.412,27.397 9.499,27.976 9.646,28.544C9.965,29.721 10.671,30.777 11.633,31.518C12.59,32.261 13.785,32.671 14.997,32.671C16.209,32.671 17.403,32.261 18.36,31.518C19.321,30.772 20.024,29.716 20.34,28.544C20.491,27.978 20.578,27.399 20.599,26.824C20.641,26.177 20.653,25.962 20.653,25.331C20.653,21.602 20.663,18.305 20.67,15.656C20.681,12.023 20.688,9.624 20.66,9.182C20.618,8.603 20.51,8.024 20.34,7.463C20.024,6.291 19.321,5.235 18.36,4.489C17.403,3.745 16.209,3.335 14.997,3.335Z" clip-rule="evenodd" fill-rule="evenodd" fill="#50555C"/>
</svg>
