<svg width="54" height="54" viewBox="0 0 54 54" fill="none" xmlns="http://www.w3.org/2000/svg" xmlns:xlink="http://www.w3.org/1999/xlink">
<path d="M27,54C19.789,54 13.008,51.192 7.907,46.093C2.808,40.992 0,34.211 0,27C0,19.789 2.808,13.008 7.907,7.907C13.008,2.808 19.789,0 27,0C34.211,0 40.992,2.808 46.093,7.907C51.192,13.008 54,19.789 54,27C54,34.211 51.192,40.992 46.093,46.093C40.992,51.192 34.211,54 27,54ZM27,3.145C23.843,3.145 20.772,3.756 17.87,4.961C14.962,6.165 12.358,7.905 10.13,10.132C7.905,12.357 6.165,14.961 4.959,17.87C3.754,20.775 3.143,23.847 3.143,27C3.143,33.373 5.624,39.363 10.129,43.868C14.633,48.373 20.624,50.854 26.996,50.854C33.371,50.854 39.361,48.373 43.864,43.868C48.37,39.362 50.852,33.372 50.852,27.002C50.852,20.63 48.371,14.639 43.868,10.134C39.362,5.627 33.372,3.145 27,3.145ZM26.996,45.907C22.728,45.907 18.544,44.431 15.214,41.751C11.977,39.145 9.781,35.622 9.031,31.833C8.926,31.179 9.032,30.66 9.346,30.29C9.756,29.81 10.403,29.709 10.874,29.709C11.159,29.709 11.461,29.747 11.772,29.821C16.523,31.194 21.436,31.891 26.375,31.891C26.581,31.891 26.784,31.889 26.989,31.887L27.005,31.887C27.211,31.889 27.409,31.891 27.608,31.891C32.541,31.891 37.448,31.197 42.194,29.828C42.512,29.748 42.825,29.707 43.124,29.707C43.777,29.707 44.296,29.898 44.624,30.258C44.928,30.595 45.052,31.063 44.993,31.651C44.285,35.48 42.105,39.046 38.853,41.693C35.513,44.411 31.302,45.907 26.996,45.907ZM13.081,32.557C12.589,32.557 12.263,32.787 12.163,33.205C11.99,33.916 12.531,35.089 13.513,35.593C17.665,37.484 22.086,38.443 26.654,38.443C26.777,38.443 26.899,38.443 27.022,38.441C32.08,38.441 37.087,37.364 40.759,35.485C41.582,34.956 42.118,33.864 41.908,33.149C41.794,32.762 41.473,32.549 41.004,32.549C40.749,32.549 40.45,32.611 40.113,32.731C40.095,32.738 40.077,32.746 40.057,32.751C35.988,33.864 31.789,34.429 27.578,34.429C27.392,34.429 27.207,34.427 27.022,34.425C21.619,34.425 16.91,33.802 13.761,32.67C13.512,32.595 13.283,32.557 13.081,32.557ZM35.559,21.615C35,21.615 34.45,21.466 33.968,21.184C32.987,20.611 32.387,19.55 32.404,18.414C32.402,17.574 32.73,16.785 33.327,16.191C33.916,15.609 34.694,15.289 35.519,15.289L35.559,15.289L35.599,15.289C36.424,15.289 37.202,15.609 37.789,16.191C38.388,16.785 38.716,17.574 38.713,18.414C38.731,19.549 38.132,20.611 37.15,21.184C36.668,21.466 36.118,21.615 35.559,21.615ZM18.459,21.568C16.719,21.568 15.304,20.153 15.304,18.414C15.302,17.574 15.63,16.785 16.227,16.191C16.816,15.609 17.594,15.289 18.419,15.289L18.459,15.289L18.499,15.289C19.312,15.289 20.111,15.618 20.689,16.191C21.286,16.783 21.614,17.572 21.613,18.414C21.613,20.153 20.198,21.568 18.459,21.568Z" clip-rule="evenodd" fill-rule="evenodd" fill="#50555C"/>
</svg>
