<svg width="56" height="48" viewBox="0 0 56 48" fill="none" xmlns="http://www.w3.org/2000/svg" xmlns:xlink="http://www.w3.org/1999/xlink">
<mask id="mask_0_2_123" style="mask-type:alpha" maskUnits="userSpaceOnUse" x="10" y="10" width="18.00025" height="14.0005">
<path d="M16.829,26.001L25.415,34.587C26.197,35.367 26.197,36.634 25.415,37.414C24.634,38.196 23.367,38.196 22.586,37.414L10.586,25.415C9.804,24.634 9.804,23.367 10.586,22.586L22.586,10.586C23.367,9.804 24.634,9.804 25.415,10.586C26.197,11.367 26.197,12.634 25.415,13.415L16.829,22.001L44,22.001C45.104,22.001 46,22.897 46,24.001C46,25.104 45.104,26.001 44,26.001L16.829,26.001Z" fill="#000000"/>
</mask>
<g mask="url(#mask_0_2_123)">
<rect  x="0" y="0" width="56" height="48" fill="#FFFFFF"/>
</g>
</svg>
