<svg width="60" height="60" viewBox="0 0 60 60" fill="none" xmlns="http://www.w3.org/2000/svg" xmlns:xlink="http://www.w3.org/1999/xlink">
<mask id="mask_0_15_268" style="mask-type:alpha" maskUnits="userSpaceOnUse" x="0" y="0" width="30" height="30">
<rect  x="0" y="0" width="60" height="60" fill="#000000"/>
</mask>
<g mask="url(#mask_0_15_268)">
<path d="M31.25,28.75L30.25,28.75L30.25,29.75L31.25,29.75L31.25,28.75ZM31.25,31.25L31.25,30.25L30.25,30.25L30.25,31.25L31.25,31.25ZM28.75,31.25L29.75,31.25L29.75,30.25L28.75,30.25L28.75,31.25ZM28.75,28.75L28.75,29.75L29.75,29.75L29.75,28.75L28.75,28.75ZM31.25,29.75L38.75,29.75L38.75,27.75L31.25,27.75L31.25,29.75ZM38.75,29.75C38.888,29.75 39,29.862 39,30L41,30C41,28.758 39.992,27.75 38.75,27.75L38.75,29.75ZM39,30C39,30.138 38.888,30.25 38.75,30.25L38.75,32.25C39.992,32.25 41,31.242 41,30L39,30ZM38.75,30.25L31.25,30.25L31.25,32.25L38.75,32.25L38.75,30.25ZM30.25,31.25L30.25,38.75L32.25,38.75L32.25,31.25L30.25,31.25ZM30.25,38.75C30.25,38.888 30.138,39 30,39L30,41C31.242,41 32.25,39.992 32.25,38.75L30.25,38.75ZM30,39C29.862,39 29.75,38.888 29.75,38.75L27.75,38.75C27.75,39.992 28.758,41 30,41L30,39ZM29.75,38.75L29.75,31.25L27.75,31.25L27.75,38.75L29.75,38.75ZM28.75,30.25L21.25,30.25L21.25,32.25L28.75,32.25L28.75,30.25ZM21.25,30.25C21.112,30.25 21,30.138 21,30L19,30C19,31.242 20.008,32.25 21.25,32.25L21.25,30.25ZM21,30C21,29.862 21.112,29.75 21.25,29.75L21.25,27.75C20.008,27.75 19,28.758 19,30L21,30ZM21.25,29.75L28.75,29.75L28.75,27.75L21.25,27.75L21.25,29.75ZM29.75,28.75L29.75,21.25L27.75,21.25L27.75,28.75L29.75,28.75ZM29.75,21.25C29.75,21.112 29.862,21 30,21L30,19C28.758,19 27.75,20.008 27.75,21.25L29.75,21.25ZM30,21C30.138,21 30.25,21.112 30.25,21.25L32.25,21.25C32.25,20.008 31.242,19 30,19L30,21ZM30.25,21.25L30.25,28.75L32.25,28.75L32.25,21.25L30.25,21.25Z" fill="#D0D7E6"/>
</g>
</svg>
