<svg width="56" height="48" viewBox="0 0 56 48" fill="none" xmlns="http://www.w3.org/2000/svg" xmlns:xlink="http://www.w3.org/1999/xlink">
<mask id="mask_0_4_176" style="mask-type:alpha" maskUnits="userSpaceOnUse" x="10" y="10" width="18.00025" height="14.0005">
<path d="M16.828,26.001L25.414,34.587C26.197,35.367 26.197,36.634 25.414,37.414C24.635,38.196 23.367,38.196 22.587,37.414L10.587,25.415C9.805,24.634 9.805,23.367 10.587,22.586L22.587,10.586C23.367,9.804 24.635,9.804 25.414,10.586C26.197,11.367 26.197,12.634 25.414,13.415L16.828,22.001L44,22.001C45.104,22.001 46,22.897 46,24.001C46,25.104 45.104,26.001 44,26.001L16.828,26.001Z" fill="#000000"/>
</mask>
<g mask="url(#mask_0_4_176)">
<rect  x="0" y="0" width="56" height="48" fill="#FFFFFF"/>
</g>
</svg>
