<svg width="42" height="38" viewBox="0 0 42 38" fill="none" xmlns="http://www.w3.org/2000/svg" xmlns:xlink="http://www.w3.org/1999/xlink">
<mask id="mask_0_45_1121" style="mask-type:alpha" maskUnits="userSpaceOnUse" x="10" y="10" width="11" height="9">
<rect  x="10" y="10" width="22" height="18" fill="#000000"/>
</mask>
<g mask="url(#mask_0_45_1121)">
<rect  x="2" y="2" width="39.385" height="34" fill="#FFFFFF"/>
<path d="M12.317,20.301L13.024,19.593L13.022,19.592L12.317,20.301ZM17.701,25.685L18.409,24.979L18.408,24.977L17.701,25.685ZM19.225,25.685L19.932,26.392L19.932,26.392L19.225,25.685ZM31.07,13.839L30.363,13.131L30.363,13.131L31.07,13.839ZM29.547,12.317L30.254,13.024L30.255,13.022L29.547,12.317ZM18.462,23.401L17.755,24.108L18.462,24.815L19.17,24.108L18.462,23.401ZM14.546,18.069C13.735,17.259 12.42,17.259 11.609,18.069L13.024,19.484C13.053,19.454 13.102,19.454 13.131,19.484L14.546,18.069ZM11.609,18.069C10.798,18.881 10.795,20.197 11.611,21.009L13.022,19.592C12.994,19.564 12.991,19.516 13.024,19.484L11.609,18.069ZM11.609,21.008L16.993,26.392L18.408,24.977L13.024,19.593L11.609,21.008ZM16.992,26.39C17.804,27.206 19.12,27.203 19.932,26.392L18.517,24.977C18.485,25.01 18.437,25.007 18.409,24.979L16.992,26.39ZM19.932,26.392L31.778,14.546L30.363,13.131L18.517,24.977L19.932,26.392ZM31.778,14.546C32.588,13.735 32.588,12.42 31.778,11.609L30.363,13.024C30.393,13.053 30.393,13.102 30.363,13.131L31.778,14.546ZM31.778,11.609C30.966,10.798 29.65,10.795 28.838,11.611L30.255,13.022C30.283,12.994 30.331,12.991 30.363,13.024L31.778,11.609ZM28.839,11.609L17.755,22.693L19.17,24.108L30.254,13.024L28.839,11.609ZM19.17,22.693L14.546,18.069L13.131,19.484L17.755,24.108L19.17,22.693Z" fill="#FFFFFF"/>
</g>
</svg>
