<svg width="22" height="16" viewBox="0 0 22 16" fill="none" xmlns="http://www.w3.org/2000/svg" xmlns:xlink="http://www.w3.org/1999/xlink">
<path d="M0.316,8.301L1.024,7.593L1.022,7.592L0.316,8.301ZM5.7,13.685L6.409,12.979L6.408,12.977L5.7,13.685ZM7.225,13.685L7.932,14.392L7.932,14.392L7.225,13.685ZM19.07,1.839L18.363,1.131L18.363,1.131L19.07,1.839ZM17.547,0.317L18.254,1.024L18.255,1.022L17.547,0.317ZM6.462,11.401L5.755,12.108L6.462,12.815L7.17,12.108L6.462,11.401ZM2.546,6.069C1.735,5.259 0.42,5.259 -0.391,6.069L1.024,7.484C1.053,7.454 1.102,7.454 1.131,7.484L2.546,6.069ZM-0.391,6.069C-1.202,6.881 -1.205,8.197 -0.389,9.009L1.022,7.592C0.994,7.564 0.991,7.516 1.024,7.484L-0.391,6.069ZM-0.391,9.008L4.993,14.392L6.408,12.977L1.024,7.593L-0.391,9.008ZM4.992,14.39C5.804,15.206 7.12,15.203 7.932,14.392L6.517,12.977C6.485,13.01 6.437,13.007 6.409,12.979L4.992,14.39ZM7.932,14.392L19.778,2.546L18.363,1.131L6.517,12.977L7.932,14.392ZM19.778,2.546C20.588,1.735 20.588,0.42 19.778,-0.391L18.363,1.024C18.393,1.053 18.393,1.102 18.363,1.131L19.778,2.546ZM19.778,-0.391C18.966,-1.202 17.65,-1.205 16.838,-0.389L18.255,1.022C18.283,0.994 18.331,0.991 18.363,1.024L19.778,-0.391ZM16.839,-0.391L5.755,10.693L7.17,12.108L18.254,1.024L16.839,-0.391ZM7.17,10.693L2.546,6.069L1.131,7.484L5.755,12.108L7.17,10.693Z" fill="#FFFFFF"/>
</svg>
