<svg width="50" height="46" viewBox="0 0 50 46" fill="none" xmlns="http://www.w3.org/2000/svg" xmlns:xlink="http://www.w3.org/1999/xlink">
<path d="M47.087,6.09C44.167,2.428 40.062,0.302 36.185,0.302C31.068,0.302 28.903,2.752 25.347,2.752C21.681,2.752 18.896,0.309 14.47,0.309C10.123,0.309 5.494,2.966 2.559,7.509C-1.567,13.907 -0.861,25.936 5.826,36.182C8.219,39.848 11.414,43.971 15.594,44.006C19.313,44.042 20.362,41.62 25.401,41.595C30.44,41.567 31.396,44.038 35.108,43.999C39.291,43.967 42.662,39.399 45.055,35.733C46.77,33.104 47.408,31.781 48.738,28.814C39.063,25.13 37.512,11.372 47.087,6.09L47.087,6.09Z" fill="#2D2D2D"/>
</svg>
