<svg width="38" height="34" viewBox="0 0 38 34" fill="none" xmlns="http://www.w3.org/2000/svg" xmlns:xlink="http://www.w3.org/1999/xlink">
<path d="M35.6,21.329L27.206,21.329L27.206,29.267C27.206,29.427 27.206,29.573 27.206,29.727C27.206,29.86 27.206,29.987 27.2,30.12C27.197,30.406 27.172,30.691 27.126,30.973C27.077,31.253 26.987,31.525 26.86,31.78C26.73,32.034 26.559,32.266 26.356,32.466C26.151,32.666 25.918,32.835 25.663,32.966C25.406,33.091 25.132,33.181 24.85,33.233C24.567,33.277 24.281,33.301 23.994,33.306C23.861,33.306 23.732,33.313 23.601,33.313L12.803,33.313C12.67,33.313 12.541,33.306 12.41,33.306C12.123,33.301 11.838,33.277 11.555,33.233C11.273,33.181 10.999,33.091 10.742,32.966C10.487,32.835 10.253,32.666 10.049,32.466C9.845,32.266 9.675,32.034 9.545,31.78C9.418,31.525 9.328,31.253 9.279,30.973C9.233,30.691 9.208,30.406 9.204,30.12C9.204,29.987 9.199,29.86 9.199,29.727C9.199,29.573 9.199,29.427 9.199,29.267L9.199,21.329L0.672,21.329C-0.191,21.329 -1.297,19.469 -0.261,18.436C0.619,17.563 14.457,3.766 17.353,0.893C17.566,0.632 17.867,0.456 18.199,0.4L18.222,0.4C18.509,0.416 18.776,0.554 18.955,0.78C21.851,3.653 35.736,17.563 36.618,18.436C37.654,19.469 36.786,21.329 35.6,21.329L35.6,21.329Z" fill="#000000"/>
</svg>
