<svg width="130" height="230" viewBox="0 0 130 230" fill="none" xmlns="http://www.w3.org/2000/svg" xmlns:xlink="http://www.w3.org/1999/xlink">
<path d="M3,1.5L3,-0.5C1.895,-0.5 1,0.395 1,1.5L3,1.5ZM128,51.5L130,51.5L128,51.5ZM126,226.5C126,227.604 126.895,228.5 128,228.5C129.105,228.5 130,227.604 130,226.5L126,226.5ZM90.5,189L90.5,187L90.5,189ZM3,189L1,189C1,190.105 1.895,191 3,191L3,189ZM3,3.5L78,3.5L78,-0.5L3,-0.5L3,3.5ZM78,3.5C90.73,3.5 102.939,8.557 111.941,17.559L114.77,14.73C105.018,4.979 91.791,-0.5 78,-0.5L78,3.5ZM111.941,17.559C120.943,26.561 126,38.77 126,51.5L130,51.5C130,37.709 124.521,24.482 114.77,14.73L111.941,17.559ZM126,51.5L126,226.5L130,226.5L130,51.5L126,51.5ZM130,226.5C130,216.024 125.838,205.976 118.431,198.569L115.602,201.398C122.26,208.056 126,217.084 126,226.5L130,226.5ZM118.431,198.569C111.023,191.162 100.976,187 90.5,187L90.5,191C99.915,191 108.945,194.74 115.602,201.398L118.431,198.569ZM90.5,187L3,187L3,191L90.5,191L90.5,187ZM5,189L5,1.5L1,1.5L1,189L5,189Z" fill="#FFFFFF"/>
</svg>
