<svg width="44" height="44" viewBox="0 0 44 44" fill="none" xmlns="http://www.w3.org/2000/svg" xmlns:xlink="http://www.w3.org/1999/xlink">
<path d="M17.365,28.001L19.365,28.001C19.365,26.896 18.47,26.001 17.365,26.001L17.365,28.001ZM23.365,42.001L23.365,44.001C24.156,44.001 24.872,43.535 25.193,42.813L23.365,42.001ZM8.805,2.001L8.783,4.001L8.805,4.001L8.805,2.001ZM4.805,5.401L6.782,5.704L6.783,5.701L4.805,5.401ZM2.045,23.401L0.068,23.098L0.068,23.101L2.045,23.401ZM6.045,28.001L6.045,26.001L6.023,26.001L6.045,28.001ZM36.705,2.001L36.705,4.001C36.717,4.001 36.729,4.001 36.741,4L36.705,2.001ZM41.365,6.001L43.365,6.001C43.365,5.911 43.359,5.821 43.347,5.733L41.365,6.001ZM41.365,20.001L43.347,20.269C43.359,20.18 43.365,20.09 43.365,20.001L41.365,20.001ZM36.705,24.001L36.741,22.001C36.729,22.001 36.717,22.001 36.705,22.001L36.705,24.001ZM15.365,28.001L15.365,36.001L19.365,36.001L19.365,28.001L15.365,28.001ZM15.365,36.001C15.365,38.122 16.208,40.157 17.708,41.658L20.537,38.829C19.787,38.079 19.365,37.062 19.365,36.001L15.365,36.001ZM17.708,41.658C19.209,43.158 21.244,44.001 23.365,44.001L23.365,40.001C22.304,40.001 21.287,39.579 20.537,38.829L17.708,41.658ZM25.193,42.813L33.193,24.813L29.538,23.188L21.538,41.188L25.193,42.813ZM33.365,24.001L33.365,2.001L29.365,2.001L29.365,24.001L33.365,24.001ZM31.365,0.001L8.805,0.001L8.805,4.001L31.365,4.001L31.365,0.001ZM8.828,0.001C7.381,-0.016 5.977,0.492 4.874,1.429L7.465,4.477C7.832,4.164 8.3,3.995 8.783,4.001L8.828,0.001ZM4.874,1.429C3.772,2.366 3.045,3.67 2.828,5.101L6.783,5.701C6.855,5.224 7.097,4.789 7.465,4.477L4.874,1.429ZM2.828,5.098L0.068,23.098L4.022,23.704L6.782,5.704L2.828,5.098ZM0.068,23.101C-0.063,23.961 -0.005,24.839 0.238,25.674L4.079,24.559C3.998,24.28 3.979,23.987 4.023,23.701L0.068,23.101ZM0.238,25.674C0.48,26.509 0.902,27.282 1.472,27.938L4.491,25.313C4.301,25.095 4.16,24.837 4.079,24.559L0.238,25.674ZM1.472,27.938C2.043,28.594 2.75,29.119 3.543,29.475L5.181,25.826C4.917,25.707 4.681,25.532 4.491,25.313L1.472,27.938ZM3.543,29.475C4.337,29.831 5.198,30.01 6.068,30.001L6.023,26.001C5.733,26.004 5.446,25.944 5.181,25.826L3.543,29.475ZM6.045,30.001L17.365,30.001L17.365,26.001L6.045,26.001L6.045,30.001ZM31.365,4.001L36.705,4.001L36.705,0.001L31.365,0.001L31.365,4.001ZM36.741,4C37.383,3.989 38.006,4.214 38.493,4.632L41.099,1.597C39.868,0.54 38.292,-0.028 36.67,0.001L36.741,4ZM38.493,4.632C38.981,5.05 39.297,5.633 39.383,6.269L43.347,5.733C43.13,4.125 42.33,2.653 41.099,1.597L38.493,4.632ZM39.365,6.001L39.365,20.001L43.365,20.001L43.365,6.001L39.365,6.001ZM39.383,19.733C39.297,20.369 38.981,20.951 38.493,21.369L41.099,24.405C42.33,23.348 43.13,21.876 43.347,20.269L39.383,19.733ZM38.493,21.369C38.006,21.788 37.383,22.012 36.741,22.001L36.67,26C38.292,26.029 39.868,25.461 41.099,24.405L38.493,21.369ZM36.705,22.001L31.365,22.001L31.365,26.001L36.705,26.001L36.705,22.001Z" fill="#000000"/>
</svg>
