<svg width="128" height="230" viewBox="0 0 128 230" fill="none" xmlns="http://www.w3.org/2000/svg" xmlns:xlink="http://www.w3.org/1999/xlink">
<path d="M1,1.5L1,-0.5C-0.105,-0.5 -1,0.395 -1,1.5L1,1.5ZM126,51.5L128,51.5L126,51.5ZM124,226.5C124,227.604 124.895,228.5 126,228.5C127.105,228.5 128,227.604 128,226.5L124,226.5ZM88.5,189L88.5,187L88.5,189ZM1,189L-1,189C-1,190.105 -0.105,191 1,191L1,189ZM1,3.5L76,3.5L76,-0.5L1,-0.5L1,3.5ZM76,3.5C88.73,3.5 100.939,8.557 109.941,17.559L112.77,14.73C103.018,4.979 89.791,-0.5 76,-0.5L76,3.5ZM109.941,17.559C118.943,26.561 124,38.77 124,51.5L128,51.5C128,37.709 122.521,24.482 112.77,14.73L109.941,17.559ZM124,51.5L124,226.5L128,226.5L128,51.5L124,51.5ZM128,226.5C128,216.024 123.838,205.976 116.431,198.569L113.602,201.398C120.26,208.056 124,217.084 124,226.5L128,226.5ZM116.431,198.569C109.023,191.162 98.976,187 88.5,187L88.5,191C97.915,191 106.945,194.74 113.602,201.398L116.431,198.569ZM88.5,187L1,187L1,191L88.5,191L88.5,187ZM3,189L3,1.5L-1,1.5L-1,189L3,189Z" fill="#FFFFFF"/>
</svg>
