<svg width="44" height="44" viewBox="0 0 44 44" fill="none" xmlns="http://www.w3.org/2000/svg" xmlns:xlink="http://www.w3.org/1999/xlink">
<path d="M26,16L24,16C24,17.105 24.895,18 26,18L26,16ZM26,8L28,8L26,8ZM20,2L20,0C19.21,0 18.493,0.465 18.172,1.188L20,2ZM34.56,42L34.583,40L34.56,40L34.56,42ZM38.56,38.6L36.583,38.297L36.583,38.3L38.56,38.6ZM41.32,20.6L43.297,20.903L43.297,20.9L41.32,20.6ZM37.32,16L37.32,18L37.343,18L37.32,16ZM2,38L0,38L2,38ZM6,20L6,22L6,20ZM28,16L28,8L24,8L24,16L28,16ZM28,8C28,5.878 27.157,3.843 25.657,2.343L22.828,5.172C23.579,5.922 24,6.939 24,8L28,8ZM25.657,2.343C24.157,0.843 22.122,0 20,0L20,4C21.061,4 22.078,4.421 22.828,5.172L25.657,2.343ZM18.172,1.188L10.172,19.188L13.828,20.812L21.828,2.812L18.172,1.188ZM10,20L10,42L14,42L14,20L10,20ZM12,44L34.56,44L34.56,40L12,40L12,44ZM34.537,44C35.984,44.016 37.389,43.509 38.491,42.572L35.901,39.524C35.533,39.837 35.065,40.006 34.583,40L34.537,44ZM38.491,42.572C39.594,41.635 40.32,40.331 40.537,38.9L36.583,38.3C36.51,38.777 36.268,39.212 35.901,39.524L38.491,42.572ZM40.537,38.903L43.297,20.903L39.343,20.297L36.583,38.297L40.537,38.903ZM43.297,20.9C43.428,20.04 43.37,19.162 43.127,18.327L39.286,19.442C39.367,19.721 39.386,20.013 39.343,20.3L43.297,20.9ZM43.127,18.327C42.885,17.492 42.464,16.719 41.893,16.063L38.875,18.687C39.065,18.906 39.205,19.164 39.286,19.442L43.127,18.327ZM41.893,16.063C41.322,15.406 40.616,14.882 39.822,14.526L38.184,18.175C38.449,18.294 38.684,18.469 38.875,18.687L41.893,16.063ZM39.822,14.526C39.029,14.17 38.167,13.99 37.297,14L37.343,18C37.633,17.997 37.92,18.056 38.184,18.175L39.822,14.526ZM37.32,14L26,14L26,18L37.32,18L37.32,14ZM12,40L6,40L6,44L12,44L12,40ZM6,40C5.47,40 4.961,39.789 4.586,39.414L1.757,42.243C2.883,43.368 4.409,44 6,44L6,40ZM4.586,39.414C4.211,39.039 4,38.53 4,38L0,38C0,39.591 0.632,41.117 1.757,42.243L4.586,39.414ZM4,38L4,24L0,24L0,38L4,38ZM4,24C4,23.47 4.211,22.961 4.586,22.586L1.757,19.757C0.632,20.883 0,22.409 0,24L4,24ZM4.586,22.586C4.961,22.211 5.47,22 6,22L6,18C4.409,18 2.883,18.632 1.757,19.757L4.586,22.586ZM6,22L12,22L12,18L6,18L6,22Z" fill="#000000"/>
</svg>
