<svg width="130" height="230" viewBox="0 0 130 230" fill="none" xmlns="http://www.w3.org/2000/svg" xmlns:xlink="http://www.w3.org/1999/xlink">
<path d="M127,1.5L129,1.5C129,0.395 128.105,-0.5 127,-0.5L127,1.5ZM52,1.5L52,-0.5L52,1.5ZM2,51.5L0,51.5L2,51.5ZM0,226.5C0,227.604 0.895,228.5 2,228.5C3.105,228.5 4,227.604 4,226.5L0,226.5ZM39.5,189L39.5,187L39.5,189ZM127,189L127,191C128.105,191 129,190.105 129,189L127,189ZM127,-0.5L52,-0.5L52,3.5L127,3.5L127,-0.5ZM52,-0.5C38.209,-0.5 24.982,4.979 15.23,14.73L18.059,17.559C27.061,8.557 39.27,3.5 52,3.5L52,-0.5ZM15.23,14.73C5.479,24.482 0,37.709 0,51.5L4,51.5C4,38.77 9.057,26.561 18.059,17.559L15.23,14.73ZM0,51.5L0,226.5L4,226.5L4,51.5L0,51.5ZM4,226.5C4,217.084 7.74,208.056 14.398,201.398L11.569,198.569C4.162,205.976 0,216.024 0,226.5L4,226.5ZM14.398,201.398C21.055,194.74 30.085,191 39.5,191L39.5,187C29.024,187 18.977,191.162 11.569,198.569L14.398,201.398ZM39.5,191L127,191L127,187L39.5,187L39.5,191ZM129,189L129,1.5L125,1.5L125,189L129,189Z" fill="#FFFFFF"/>
</svg>
