<svg width="30" height="24" viewBox="0 0 30 24" fill="none" xmlns="http://www.w3.org/2000/svg" xmlns:xlink="http://www.w3.org/1999/xlink">
<path d="M14.661,22.593C14.496,22.593 14.334,22.526 14.218,22.408L10.222,18.376C10.1,18.255 10.031,18.087 10.035,17.915C10.039,17.743 10.114,17.579 10.242,17.463C11.476,16.419 13.045,15.845 14.661,15.845C16.277,15.845 17.846,16.419 19.08,17.463C19.208,17.577 19.283,17.742 19.287,17.915C19.291,18.087 19.222,18.255 19.1,18.376L15.104,22.408C14.986,22.527 14.829,22.593 14.661,22.593ZM21.677,15.517C21.517,15.517 21.365,15.457 21.249,15.348C19.44,13.71 17.101,12.808 14.661,12.808C12.223,12.808 9.885,13.71 8.078,15.348C7.962,15.457 7.81,15.517 7.65,15.517C7.484,15.517 7.328,15.453 7.211,15.336L4.903,13.003C4.779,12.879 4.712,12.715 4.714,12.542C4.716,12.368 4.786,12.206 4.91,12.085C7.569,9.611 11.033,8.249 14.663,8.249C18.293,8.249 21.756,9.611 24.415,12.085C24.541,12.207 24.611,12.369 24.613,12.542C24.615,12.712 24.547,12.88 24.426,13.003L22.117,15.336C21.999,15.453 21.843,15.517 21.677,15.517ZM26.996,10.148C26.835,10.148 26.682,10.086 26.568,9.973C23.338,6.906 19.109,5.216 14.661,5.216C10.211,5.216 5.982,6.906 2.754,9.973C2.64,10.086 2.487,10.148 2.326,10.148C2.16,10.148 2.004,10.083 1.886,9.966L-0.425,7.633C-0.547,7.509 -0.614,7.347 -0.612,7.176C-0.61,7.003 -0.542,6.841 -0.419,6.721C3.657,2.814 9.012,0.662 14.661,0.662C20.31,0.662 25.665,2.814 29.741,6.721C29.863,6.842 29.932,7.008 29.932,7.176C29.934,7.347 29.868,7.509 29.745,7.633L27.434,9.966C27.317,10.083 27.161,10.148 26.996,10.148Z" clip-rule="evenodd" fill-rule="evenodd" fill="#FFFFFF"/>
</svg>
